# xmcd CD database file
# Copyright (C) 1995-1998 Ti Kan
#
# Track frame offsets:
#	150
#	18662
#	40405
#	57857
#	70025
#	80882
#	96730
#	109365
#	134782
#	152547
#	164385
#	178175
#	195132
#	222882
#
# Disc length: 3131 seconds
#
# Revision: 1
# Processed by: cddbd v1.4PL0 Copyright (c) Steve Scherf et al.
# Submitted via: CDex 1.40Beta2
#
DISCID=ce0c390e
DTITLE=Jimi Hendrix - Abtone Session
DYEAR=1966
DGENRE=Blues
TTITLE0=Good Times
TTITLE1=Voices
TTITLE2=Suspicious
TTITLE3=Whipper
TTITLE4=Bessie Mae
TTITLE5=Soul Food
TTITLE6=Voice in the Wind
TTITLE7=Free Spirit
TTITLE8=Hot Trigger
TTITLE9=Psycho
TTITLE10=Come on Baby Pt 1
TTITLE11=Come on Baby Pt 2
TTITLE12=Night Life (Bonus)
TTITLE13=You got it (Bonus)
EXTD=YEAR: 1966 ID3G:   0
EXTT0=
EXTT1=
EXTT2=
EXTT3=
EXTT4=
EXTT5=
EXTT6=
EXTT7=
EXTT8=
EXTT9=
EXTT10=
EXTT11=
EXTT12=
EXTT13=
PLAYORDER=
